<svg width="460.000000" height="337.000000" viewBox="0 0 460 337" fill="none" xmlns="http://www.w3.org/2000/svg" xmlns:xlink="http://www.w3.org/1999/xlink">
	<desc>
			Created with Pixso.
	</desc>
	<defs/>
	<path id="Path" d="M355.192 64.473C340.531 48.8226 329.181 30.1389 311.657 17.3668C284.131 -2.7373 244.516 -4.69751 212.33 7.93188C180.145 20.5614 155.071 46.0188 138.546 74.8445C129.853 90.011 123.025 106.555 110.287 118.948C99.5186 129.419 85.3657 136.1 71.9468 143.376C50.311 155.075 29.4756 169.212 15.4746 188.609C1.47412 208.006 -4.78564 233.482 4.16455 255.342C10.1997 270.093 22.356 281.829 34.8101 292.455C49.4648 304.948 65.2173 316.647 83.396 324.09C106.155 333.352 131.42 335.343 156.195 336.286C200.118 337.95 244.11 336.706 287.846 332.564C323.661 329.177 360.56 323.396 390.524 304.681C432.5 278.473 454.142 230.455 459.014 183.367C460.997 164.535 460.495 144.964 452.748 127.49C434.219 85.6937 384.225 95.4697 355.192 64.473Z" fill="#EFF1F7" fill-opacity="1.000000" fill-rule="nonzero"/>
</svg>
