<svg width="120.042480" height="32.674072" viewBox="0 0 120.042 32.6741" fill="none" xmlns="http://www.w3.org/2000/svg" xmlns:xlink="http://www.w3.org/1999/xlink">
	<desc>
			Created with Pixso.
	</desc>
	<defs/>
	<path id="Shortly" d="M16.1841 7.75195C16.1162 7.66138 15.8779 7.49146 15.4702 7.24194C15.062 6.99268 14.5522 6.73193 13.9399 6.45996C13.3281 6.18799 12.6592 5.94995 11.9341 5.74609C11.2085 5.54199 10.4834 5.43994 9.75781 5.43994C7.76318 5.43994 6.76611 6.10864 6.76611 7.44604C6.76611 7.854 6.87354 8.19409 7.08887 8.46606C7.3042 8.73804 7.62158 8.98169 8.04102 9.19702C8.46045 9.41235 8.9873 9.6106 9.62207 9.79199L11.0273 10.1848C11.2842 10.2554 11.5522 10.3284 11.832 10.4041C12.9878 10.7214 14.0308 11.0669 14.96 11.4409C15.8892 11.8149 16.6768 12.2798 17.3232 12.835C17.9692 13.3904 18.4678 14.0647 18.8188 14.8579C19.1704 15.6514 19.3462 16.6033 19.3462 17.7141C19.3462 19.074 19.0908 20.2244 18.5811 21.165C18.0708 22.1057 17.3965 22.865 16.5581 23.4431C15.7192 24.021 14.7559 24.4404 13.668 24.7009C12.5801 24.9617 11.458 25.092 10.3018 25.092C9.41797 25.092 8.51123 25.0239 7.58203 24.8879C6.65283 24.752 5.74609 24.5537 4.86182 24.293C3.97803 24.0322 3.12256 23.7207 2.29492 23.3579C1.46777 22.9954 0.702637 22.5759 0 22.1001L2.44824 17.238C2.53857 17.3513 2.8335 17.5667 3.33203 17.884C3.83057 18.2014 4.44824 18.5186 5.18506 18.8359C5.92188 19.1533 6.74316 19.4368 7.6499 19.686C8.55664 19.9353 9.47461 20.0601 10.4038 20.0601C12.376 20.0601 13.3618 19.4592 13.3618 18.2581C13.3618 17.8047 13.2148 17.4307 12.9199 17.136C12.6255 16.8413 12.2173 16.575 11.6958 16.3369C11.2617 16.1387 10.7603 15.9521 10.1919 15.7773L8.49072 15.2822C8.1748 15.1899 7.84961 15.0938 7.51416 14.9939C6.40332 14.6541 5.43994 14.2856 4.62402 13.8889C3.80811 13.4924 3.13379 13.0334 2.60107 12.512C2.06836 11.9907 1.67188 11.3899 1.41113 10.71C1.15039 10.03 1.02002 9.23657 1.02002 8.33008C1.02002 7.06055 1.25781 5.93872 1.73389 4.96411C2.20996 3.98926 2.85596 3.16772 3.67188 2.49902C4.48779 1.83032 5.43457 1.32593 6.51123 0.986084C7.58789 0.645996 8.72656 0.476074 9.92822 0.476074C10.7666 0.476074 11.5942 0.55542 12.4102 0.714111C13.2261 0.872559 14.0078 1.07666 14.7559 1.32593C15.5039 1.57544 16.2012 1.85864 16.8472 2.17603C17.4932 2.49341 18.0879 2.81055 18.6318 3.12793L16.1841 7.75195ZM39.6079 24.8201L34.168 24.8201L34.168 14.79C34.168 13.634 33.9414 12.7839 33.4883 12.24C33.0347 11.696 32.4116 11.4241 31.6182 11.4241C31.3008 11.4241 30.9551 11.4976 30.5811 11.645C30.207 11.7922 29.8442 12.0076 29.4932 12.291C29.1416 12.5742 28.8188 12.9087 28.5239 13.2939C28.2295 13.6794 28.0029 14.1101 27.8442 14.5859L27.8442 24.8201L22.4043 24.8201L22.4043 0L27.8442 0L27.8442 9.96191C28.5015 8.89673 29.3687 8.07495 30.4453 7.49707C31.522 6.91895 32.7061 6.62988 33.998 6.62988C35.1992 6.62988 36.1685 6.8396 36.9053 7.25903C37.6416 7.67822 38.2085 8.21094 38.605 8.85693C39.002 9.50293 39.2681 10.2283 39.4043 11.033C39.54 11.8376 39.6079 12.6252 39.6079 13.396L39.6079 24.8201ZM51.9482 25.1599C50.4297 25.1599 49.0752 24.9106 47.8853 24.4121C46.6953 23.9133 45.6924 23.239 44.876 22.3889C44.0601 21.5391 43.4424 20.553 43.0234 19.4309C42.604 18.3091 42.394 17.136 42.394 15.9121C42.394 14.688 42.604 13.5149 43.0234 12.3931C43.4424 11.271 44.0601 10.2849 44.876 9.43506C45.6924 8.58496 46.6953 7.90503 47.8853 7.39502C49.0752 6.88501 50.4297 6.62988 51.9482 6.62988C53.4668 6.62988 54.8154 6.88501 55.9941 7.39502C57.1729 7.90503 58.1704 8.58496 58.9863 9.43506C59.8022 10.2849 60.4258 11.271 60.8564 12.3931C61.2871 13.5149 61.5024 14.688 61.5024 15.9121C61.5024 17.136 61.2925 18.3091 60.873 19.4309C60.4541 20.553 59.8364 21.5391 59.02 22.3889C58.2041 23.239 57.2012 23.9133 56.0112 24.4121C54.8213 24.9106 53.4668 25.1599 51.9482 25.1599ZM49.0923 19.2949C48.3442 18.4451 47.9702 17.3174 47.9702 15.9121C47.9702 15.2319 48.0723 14.603 48.2764 14.0249C48.4805 13.447 48.7578 12.9541 49.1094 12.5459C49.4604 12.1379 49.8799 11.8206 50.3672 11.594C50.8545 11.3674 51.3813 11.2539 51.9482 11.2539C53.0815 11.2539 54.0225 11.679 54.77 12.5291C55.5181 13.3789 55.8921 14.5066 55.8921 15.9121C55.8921 16.592 55.79 17.2209 55.5864 17.7991C55.3823 18.377 55.1045 18.8701 54.7534 19.2781C54.4019 19.686 53.9883 20.0034 53.5122 20.23C53.0361 20.4568 52.5146 20.5701 51.9482 20.5701C50.792 20.5701 49.8403 20.145 49.0923 19.2949ZM75.7461 11.6279C74.4316 11.6506 73.2417 11.866 72.1763 12.2739C71.1108 12.6819 70.3403 13.2939 69.8643 14.1101L69.8643 24.8201L64.4243 24.8201L64.4243 6.96997L69.4224 6.96997L69.4224 10.574C70.0342 9.37256 70.8218 8.43188 71.7852 7.75195C72.7485 7.07202 73.7744 6.7207 74.8623 6.698L75.4062 6.698C75.5195 6.698 75.6328 6.70923 75.7461 6.73193L75.7461 11.6279ZM89.8203 23.8679C89.0723 24.1853 88.2168 24.48 87.2534 24.752C86.29 25.0239 85.3213 25.1599 84.3467 25.1599C83.6665 25.1599 83.0259 25.075 82.4253 24.905C81.8247 24.7351 81.2979 24.4629 80.8442 24.0891C80.3911 23.7151 80.0342 23.2219 79.7734 22.6101C79.5127 21.998 79.3823 21.2612 79.3823 20.3999L79.3823 11.084L77.1045 11.084L77.1045 6.96997L79.3823 6.96997L79.3823 1.29199L84.8223 1.29199L84.8223 6.96997L88.4604 6.96997L88.4604 11.084L84.8223 11.084L84.8223 18.53C84.8223 19.1194 84.9697 19.5444 85.2646 19.8049C85.5591 20.0657 85.9331 20.196 86.3862 20.196C86.7944 20.196 87.2139 20.1279 87.6445 19.9919C88.0752 19.856 88.4492 19.7087 88.7666 19.55L89.8203 23.8679ZM92.0967 0L97.5366 0L97.5366 18.4619C97.5366 19.822 98.1147 20.502 99.2705 20.502C99.5425 20.502 99.8428 20.4624 100.171 20.3831C100.5 20.3037 100.801 20.1846 101.073 20.0259L101.787 24.106C101.106 24.4233 100.325 24.6726 99.4404 24.854C98.5566 25.0354 97.729 25.126 96.9585 25.126C95.3945 25.126 94.1934 24.718 93.3545 23.9021C92.5161 23.0859 92.0967 21.9072 92.0967 20.366L92.0967 0ZM103.553 27.5061C104.006 27.6646 104.431 27.7781 104.828 27.8459C105.224 27.9141 105.582 27.948 105.898 27.948C106.556 27.948 107.066 27.7214 107.429 27.2681C107.792 26.8147 108.12 25.9988 108.415 24.8201L101.615 6.96997L107.225 6.96997L111.373 20.1621L114.943 6.96997L120.042 6.96997L113.243 27.71C112.767 29.1833 111.917 30.3789 110.693 31.2971C109.469 32.2151 108.018 32.6741 106.341 32.6741C105.887 32.6741 105.428 32.6343 104.964 32.5549C104.499 32.4756 104.029 32.3452 103.553 32.1641L103.553 27.5061Z" clip-rule="evenodd" fill="#FFFFFF" fill-opacity="1.000000" fill-rule="evenodd"/>
</svg>
