<svg width="24.000000" height="24.000000" viewBox="0 0 24 24" fill="none" xmlns="http://www.w3.org/2000/svg" xmlns:xlink="http://www.w3.org/1999/xlink">
	<desc>
			Created with Pixso.
	</desc>
	<defs/>
	<path id="Shape" d="M12 0C8.74121 0 8.33301 0.013916 7.05322 0.0720215C2.69482 0.271973 0.272949 2.68994 0.0732422 7.052C0.0141602 8.33301 0 8.74097 0 12C0 15.259 0.0141602 15.668 0.0717773 16.948C0.271973 21.3059 2.68994 23.728 7.05176 23.928C8.33301 23.9861 8.74121 24 12 24C15.2588 24 15.668 23.9861 16.9482 23.928C21.3018 23.728 23.73 21.3101 23.9268 16.948C23.9858 15.668 24 15.259 24 12C24 8.74097 23.9858 8.33301 23.9282 7.05298C23.7319 2.69897 21.311 0.272949 16.9492 0.072998C15.668 0.013916 15.2588 0 12 0ZM16.8501 2.23291C15.584 2.17505 15.2041 2.16309 12 2.16309C8.7959 2.16309 8.41699 2.17505 7.15088 2.23193C3.896 2.37988 2.38086 3.92407 2.23193 7.15088C2.1748 8.41699 2.16211 8.7959 2.16211 12C2.16211 15.2051 2.17383 15.584 2.23193 16.8491C2.37988 20.0701 3.89111 21.6201 7.15088 21.769C8.41602 21.8269 8.7959 21.8391 12 21.8391C15.2061 21.8391 15.584 21.8269 16.8501 21.769C20.105 21.6211 21.6201 20.075 21.769 16.8501C21.8262 15.585 21.8379 15.2061 21.8379 12.001C21.8379 8.79712 21.8271 8.41699 21.769 7.1521C21.6211 3.92407 20.1021 2.3811 16.8501 2.23291ZM16.9648 5.59497C16.9648 4.80005 17.6099 4.15503 18.4058 4.15503C19.2012 4.15503 19.8452 4.80005 19.8452 5.59497C19.8452 6.38989 19.2012 7.03491 18.4058 7.03491C17.6099 7.03491 16.9648 6.38989 16.9648 5.59497ZM5.83789 12C5.83789 8.59692 8.59717 5.83789 12 5.83789C15.4028 5.83789 18.1621 8.59692 18.1621 12C18.1621 15.4041 15.4028 18.1631 12 18.1631C8.59717 18.1631 5.83789 15.4031 5.83789 12ZM12 16C9.79102 16 8 14.21 8 12C8 9.79102 9.79102 8 12 8C14.209 8 16 9.79102 16 12C16 14.21 14.209 16 12 16Z" clip-rule="evenodd" fill="#FFFFFF" fill-opacity="1.000000" fill-rule="evenodd"/>
</svg>
