<svg width="40.000000" height="28.281250" viewBox="0 0 40 28.2812" fill="none" xmlns="http://www.w3.org/2000/svg" xmlns:xlink="http://www.w3.org/1999/xlink">
	<desc>
			Created with Pixso.
	</desc>
	<defs/>
	<path id="Shape" d="M37.5781 25.9375L38.8281 25.9375C39.4756 25.9375 40 26.4621 40 27.1094C40 27.7567 39.4756 28.2812 38.8281 28.2812L1.17188 28.2812C0.524414 28.2812 0 27.7567 0 27.1094C0 26.4621 0.524414 25.9375 1.17188 25.9375L2.42188 25.9375L2.42188 12.8906C2.42188 12.2433 2.94629 11.7188 3.59375 11.7188L8.28125 11.7188C8.92871 11.7188 9.45312 12.2433 9.45312 12.8906L9.45312 25.9375L11.7969 25.9375L11.7969 17.5781C11.7969 16.9308 12.3213 16.4062 12.9688 16.4062L17.6562 16.4062C18.3037 16.4062 18.8281 16.9308 18.8281 17.5781L18.8281 25.9375L21.1719 25.9375L21.1719 8.20312C21.1719 7.55585 21.6963 7.03125 22.3438 7.03125L27.0312 7.03125C27.6787 7.03125 28.2031 7.55585 28.2031 8.20312L28.2031 25.9375L30.5469 25.9375L30.5469 1.17188C30.5469 0.524597 31.0713 0 31.7188 0L36.4062 0C37.0537 0 37.5781 0.524597 37.5781 1.17188L37.5781 25.9375ZM32.8906 2.34375L35.2344 2.34375L35.2344 25.9375L32.8906 25.9375L32.8906 2.34375ZM25.8594 9.375L23.5156 9.375L23.5156 25.9375L25.8594 25.9375L25.8594 9.375ZM7.10938 14.0625L4.76562 14.0625L4.76562 25.9375L7.10938 25.9375L7.10938 14.0625ZM14.1406 18.75L16.4844 18.75L16.4844 25.9375L14.1406 25.9375L14.1406 18.75Z" clip-rule="evenodd" fill="#000000" fill-opacity="1.000000" fill-rule="evenodd"/>
</svg>
