<svg width="39.937012" height="39.937012" viewBox="0 0 39.937 39.937" fill="none" xmlns="http://www.w3.org/2000/svg" xmlns:xlink="http://www.w3.org/1999/xlink">
	<desc>
			Created with Pixso.
	</desc>
	<defs/>
	<path id="Shape" d="M19.9683 0C8.95801 0 0 8.95807 0 19.9685C0 30.9789 8.95801 39.937 19.9683 39.937C30.979 39.937 39.937 30.9789 39.937 19.9685C39.937 8.95807 30.979 0 19.9683 0ZM2.49609 19.9686C2.49609 25.7739 5.35303 30.9125 9.72314 34.0914C15.9404 30.3772 23.9966 30.3772 30.2139 34.0914C34.584 30.9125 37.4409 25.7739 37.4409 19.9685L32.4487 19.9685L32.4487 17.4724L37.2417 17.4724C36.71 13.7809 35.0303 10.4614 32.5635 7.89008L29.6763 10.7777L27.9111 9.01288L30.7085 6.21564C28.0503 4.13538 24.7822 2.81317 21.2163 2.55933L21.2163 6.2403L18.7202 6.2403L18.7202 2.55945C15.1548 2.81317 11.8862 4.13544 9.22852 6.2157L12.0259 9.013L10.2607 10.7778L7.37305 7.89014C4.90625 10.4614 3.22705 13.7809 2.69531 17.4725L7.48828 17.4725L7.48828 19.9686L2.49609 19.9686ZM12.1646 35.5789C17.0273 33.1766 22.9102 33.1766 27.7725 35.5789C25.4204 36.7599 22.7749 37.441 19.9683 37.441C17.1616 37.441 14.5171 36.7599 12.1646 35.5789Z" clip-rule="evenodd" fill="#000000" fill-opacity="1.000000" fill-rule="evenodd"/>
</svg>
