<svg width="47.467773" height="48.000000" viewBox="0 0 47.4678 48" fill="none" xmlns="http://www.w3.org/2000/svg" xmlns:xlink="http://www.w3.org/1999/xlink">
	<desc>
			Created with Pixso.
	</desc>
	<defs/>
	<path id="Shape" d="M45.6807 5.9729C45.978 5.83081 46.3271 5.84875 46.6084 6.02014C46.8887 6.19263 47.0635 6.49402 47.0752 6.82288L47.459 15.2428C47.4648 15.3705 47.4678 15.498 47.4678 15.6255C47.4678 17.1276 47.0576 18.6041 46.2788 19.894C45.6133 20.9941 44.7026 21.9254 43.6177 22.6154L41.5527 23.9224L28.4731 45.62C27.8027 46.7395 26.7124 47.5437 25.4453 47.8546C25.0557 47.9509 24.6558 47.9996 24.2544 48C22.2329 48.0007 20.4214 46.7523 19.7021 44.863C19.6313 44.803 5.01416 22.6476 5.00732 22.6381C5 22.6282 5 22.6154 4.99316 22.6055C4.93848 22.5143 4.89941 22.4143 4.87695 22.3103C4.87109 22.2902 4.86572 22.2693 4.86133 22.2484C4.85742 22.2356 4.854 22.2224 4.85156 22.2092L4.35986 18.0729L2.86816 15.8024L0.163086 11.6953C0.119141 11.629 0.0834961 11.558 0.0571289 11.4829C0.0185547 11.374 0 11.2629 0 11.1537C0 10.7493 0.251465 10.3704 0.654297 10.2272L4.48096 8.88501C4.90625 8.7356 5.37939 8.8949 5.62744 9.27136L7.79102 12.5559L9.2876 14.8275L12.8931 16.9124C12.9058 16.9193 12.9087 16.9263 12.9282 16.9391C12.9482 16.9519 12.9648 16.9677 12.9834 16.9812C13.0645 17.0416 13.1357 17.1138 13.1948 17.1958C13.2017 17.2053 13.2134 17.2115 13.2212 17.2222L19.3481 26.5214L19.3481 22.5699C19.3496 22.4736 19.3647 22.3777 19.3945 22.2858L21.2324 16.7717L17.4795 9.26843C17.4102 9.12939 17.376 8.979 17.376 8.82935C17.376 8.62024 17.4429 8.41235 17.5728 8.23865L23.4736 0.371338C23.5156 0.320801 23.562 0.273926 23.6128 0.232178C24.0474 -0.125244 24.6895 -0.0629883 25.0469 0.371338L30.9473 8.23865C31.0796 8.41296 31.1475 8.62256 31.1475 8.83337C31.1475 8.98169 31.1138 9.13049 31.0459 9.26843L27.293 16.7717L29.1309 22.2858C29.1606 22.3777 29.1758 22.4736 29.1772 22.5699C29.1772 22.5798 29.1821 22.5875 29.1821 22.5967L29.1821 25.3982L33.1323 18.8368L33.3291 16.4011C33.5645 13.4392 35.3687 10.8303 38.0566 9.56433L45.6807 5.9729ZM39.4858 23.5444L37.9639 26.0709L32.9102 23.0226L34.4336 20.4961L39.4858 23.5444ZM21.3149 38.4463L21.3149 23.58L27.2153 23.58L27.2153 28.6604L21.3149 38.4463ZM23.0073 17.6796L25.5229 17.6796L26.8335 21.613L21.6963 21.613L23.0073 17.6796ZM24.2651 10.7955C23.7222 10.7955 23.2817 10.3553 23.2817 9.81226C23.2817 9.26917 23.7222 8.82898 24.2651 8.82898C24.8081 8.82898 25.2485 9.26917 25.2485 9.81226C25.2485 10.3553 24.8081 10.7955 24.2651 10.7955ZM24.2651 2.60083L29.0142 8.93225L25.624 15.7126L25.2485 15.7126L25.2485 12.5815C26.4595 12.1534 27.2163 11.0154 27.2163 9.80017C27.2163 9.47375 27.1616 9.14172 27.0464 8.81653C26.5034 7.28027 24.8179 6.47534 23.2817 7.01843C22.0708 7.44653 21.3145 8.58472 21.3145 9.79993C21.3145 10.1263 21.3687 10.4581 21.4839 10.7834C21.7808 11.6235 22.4419 12.2845 23.2817 12.5815L23.2817 15.7126L22.9062 15.7126L19.5161 8.93225L24.2651 2.60083ZM10.5298 17.818L10.2407 18.0088L6.61865 20.3947L6.28564 17.6078C6.26709 17.4562 6.21436 17.3112 6.12988 17.1837L5.04834 15.5416L6.69043 14.4598L7.77246 16.1019C7.85645 16.2294 7.96924 16.3352 8.10107 16.4117L10.5298 17.818ZM4.4082 10.9922L5.60791 12.8145L3.96582 13.8962L2.49072 11.6642L4.4082 10.9922ZM9.65674 20.7469L12.1152 19.1232L19.3481 30.0952L19.3481 40.8212L7.19287 22.3715L9.65674 20.7469ZM26.7915 44.5983C25.9575 45.9983 24.147 46.4575 22.7471 45.6237C21.8203 45.0719 21.3062 44.0917 21.3062 43.0861C21.3062 42.5725 21.4399 42.0524 21.7217 41.5792C21.728 41.5693 21.7339 41.5598 21.7397 41.5499L29.1655 29.2346L29.1821 29.2346L29.1821 29.2083L31.8945 24.709L34.4209 26.2354L36.9512 27.7555L26.7915 44.5983ZM44.5991 18.8745C44.0918 19.7124 43.3975 20.4221 42.5708 20.9473L40.8237 22.0536L37.9722 20.3368L35.1201 18.6196L35.2822 16.5546C35.4624 14.2965 36.8374 12.308 38.8867 11.3423L45.1802 8.37927L45.3057 11.12C45.207 11.1094 45.1074 11.1134 45.0103 11.1328L42.6284 11.7231C40.4116 12.2644 38.6958 14.0186 38.2031 16.2466C38.187 16.3188 38.1792 16.3911 38.1792 16.4624C38.1792 16.9124 38.4902 17.3181 38.9478 17.4207C39.0186 17.4371 39.0903 17.4456 39.1631 17.4456C39.623 17.4448 40.0215 17.1255 40.1216 16.6765C40.4541 15.1783 41.6084 13.9988 43.0986 13.6337L45.396 13.0642L45.499 15.3263C45.5034 15.4232 45.5059 15.5203 45.5059 15.6171C45.5059 16.7631 45.1934 17.8898 44.5991 18.8745Z" clip-rule="evenodd" fill="#2BD0D0" fill-opacity="1.000000" fill-rule="evenodd"/>
</svg>
