<svg width="120.042480" height="32.673950" viewBox="0 0 120.042 32.674" fill="none" xmlns="http://www.w3.org/2000/svg" xmlns:xlink="http://www.w3.org/1999/xlink">
	<desc>
			Created with Pixso.
	</desc>
	<defs/>
	<path id="Shortly" d="M16.1841 7.75195C16.1162 7.66138 15.8779 7.49133 15.4702 7.24194C15.062 6.99268 14.5522 6.73206 13.9399 6.45996C13.3281 6.18799 12.6592 5.94995 11.9341 5.74597C11.2085 5.54199 10.4834 5.43994 9.75781 5.43994C7.76318 5.43994 6.76611 6.10864 6.76611 7.44604C6.76611 7.854 6.87354 8.19397 7.08887 8.46594C7.3042 8.73804 7.62158 8.98169 8.04102 9.19702C8.46045 9.41235 8.9873 9.61072 9.62207 9.79199L11.0273 10.1849C11.2842 10.2554 11.5522 10.3285 11.832 10.4041C12.9878 10.7213 14.0308 11.067 14.96 11.441C15.8892 11.8149 16.6768 12.2797 17.3232 12.835C17.9692 13.3904 18.4678 14.0647 18.8188 14.858C19.1704 15.6514 19.3462 16.6033 19.3462 17.714C19.3462 19.074 19.0908 20.2244 18.5811 21.165C18.0708 22.1057 17.3965 22.865 16.5581 23.443C15.7192 24.021 14.7559 24.4403 13.668 24.701C12.5801 24.9617 11.458 25.092 10.3018 25.092C9.41797 25.092 8.51123 25.024 7.58203 24.8879C6.65283 24.752 5.74609 24.5537 4.86182 24.293C3.97803 24.0323 3.12256 23.7207 2.29492 23.358C1.46777 22.9954 0.702637 22.576 0 22.1L2.44824 17.238C2.53857 17.3513 2.8335 17.5667 3.33203 17.884C3.83057 18.2013 4.44824 18.5187 5.18506 18.8361C5.92188 19.1533 6.74316 19.4366 7.6499 19.686C8.55664 19.9353 9.47461 20.0601 10.4038 20.0601C12.376 20.0601 13.3618 19.4594 13.3618 18.2581C13.3618 17.8047 13.2148 17.4307 12.9199 17.136C12.6255 16.8413 12.2173 16.575 11.6958 16.337C11.2617 16.1387 10.7603 15.9521 10.1919 15.7775L8.49072 15.2823C8.1748 15.1898 7.84961 15.0938 7.51416 14.994C6.40332 14.6541 5.43994 14.2856 4.62402 13.889C3.80811 13.4923 3.13379 13.0333 2.60107 12.512C2.06836 11.9907 1.67188 11.39 1.41113 10.71C1.15039 10.03 1.02002 9.23669 1.02002 8.32996C1.02002 7.06067 1.25781 5.93872 1.73389 4.96399C2.20996 3.98938 2.85596 3.16772 3.67188 2.49902C4.48779 1.83032 5.43457 1.32605 6.51123 0.985962C7.58789 0.645996 8.72656 0.475952 9.92822 0.475952C10.7666 0.475952 11.5942 0.555298 12.4102 0.713989C13.2261 0.872681 14.0078 1.07666 14.7559 1.32605C15.5039 1.57532 16.2012 1.85864 16.8472 2.17603C17.4932 2.49329 18.0879 2.81067 18.6318 3.12805L16.1841 7.75195ZM39.6079 24.8199L34.168 24.8199L34.168 14.79C34.168 13.634 33.9414 12.7841 33.4883 12.24C33.0347 11.696 32.4116 11.424 31.6182 11.424C31.3008 11.424 30.9551 11.4977 30.5811 11.645C30.207 11.7924 29.8442 12.0077 29.4932 12.291C29.1416 12.5743 28.8188 12.9087 28.5239 13.2939C28.2295 13.6793 28.0029 14.11 27.8442 14.5861L27.8442 24.8199L22.4043 24.8199L22.4043 0L27.8442 0L27.8442 9.96204C28.5015 8.89661 29.3687 8.07495 30.4453 7.49695C31.522 6.91895 32.7061 6.63 33.998 6.63C35.1992 6.63 36.1685 6.83972 36.9053 7.25903C37.6416 7.67834 38.2085 8.21094 38.605 8.85706C39.002 9.50305 39.2681 10.2283 39.4043 11.033C39.54 11.8376 39.6079 12.6254 39.6079 13.396L39.6079 24.8199ZM51.9482 25.16C50.4297 25.16 49.0752 24.9106 47.8853 24.412C46.6953 23.9133 45.6924 23.239 44.876 22.389C44.0601 21.5389 43.4424 20.553 43.0234 19.431C42.604 18.309 42.394 17.136 42.394 15.912C42.394 14.688 42.604 13.515 43.0234 12.3929C43.4424 11.271 44.0601 10.285 44.876 9.43506C45.6924 8.58496 46.6953 7.90503 47.8853 7.39502C49.0752 6.88501 50.4297 6.63 51.9482 6.63C53.4668 6.63 54.8154 6.88501 55.9941 7.39502C57.1729 7.90503 58.1704 8.58496 58.9863 9.43506C59.8022 10.285 60.4258 11.271 60.8564 12.3929C61.2871 13.515 61.5024 14.688 61.5024 15.912C61.5024 17.136 61.2925 18.309 60.873 19.431C60.4541 20.553 59.8364 21.5389 59.02 22.389C58.2041 23.239 57.2012 23.9133 56.0112 24.412C54.8213 24.9106 53.4668 25.16 51.9482 25.16ZM49.0923 19.295C48.3442 18.4449 47.9702 17.3174 47.9702 15.912C47.9702 15.2321 48.0723 14.603 48.2764 14.025C48.4805 13.447 48.7578 12.954 49.1094 12.546C49.4604 12.1379 49.8799 11.8207 50.3672 11.594C50.8545 11.3673 51.3813 11.254 51.9482 11.254C53.0815 11.254 54.0225 11.679 54.77 12.5291C55.5181 13.379 55.8921 14.5067 55.8921 15.912C55.8921 16.592 55.79 17.2209 55.5864 17.799C55.3823 18.377 55.1045 18.87 54.7534 19.278C54.4019 19.686 53.9883 20.0033 53.5122 20.23C53.0361 20.4567 52.5146 20.5699 51.9482 20.5699C50.792 20.5699 49.8403 20.145 49.0923 19.295ZM75.7461 11.6281C74.4316 11.6506 73.2417 11.866 72.1763 12.274C71.1108 12.682 70.3403 13.2939 69.8643 14.11L69.8643 24.8199L64.4243 24.8199L64.4243 6.96997L69.4224 6.96997L69.4224 10.574C70.0342 9.37268 70.8218 8.43201 71.7852 7.75195C72.7485 7.07202 73.7744 6.7207 74.8623 6.698L75.4062 6.698C75.5195 6.698 75.6328 6.70935 75.7461 6.73206L75.7461 11.6281ZM89.8203 23.868C89.0723 24.1853 88.2168 24.48 87.2534 24.752C86.29 25.024 85.3213 25.16 84.3467 25.16C83.6665 25.16 83.0259 25.075 82.4253 24.905C81.8247 24.735 81.2979 24.463 80.8442 24.089C80.3911 23.715 80.0342 23.222 79.7734 22.61C79.5127 21.998 79.3823 21.2614 79.3823 20.4L79.3823 11.084L77.1045 11.084L77.1045 6.96997L79.3823 6.96997L79.3823 1.29199L84.8223 1.29199L84.8223 6.96997L88.4604 6.96997L88.4604 11.084L84.8223 11.084L84.8223 18.53C84.8223 19.1194 84.9697 19.5443 85.2646 19.8051C85.5591 20.0657 85.9331 20.196 86.3862 20.196C86.7944 20.196 87.2139 20.1281 87.6445 19.9919C88.0752 19.856 88.4492 19.7086 88.7666 19.55L89.8203 23.868ZM92.0967 0L97.5366 0L97.5366 18.462C97.5366 19.822 98.1147 20.502 99.2705 20.502C99.5425 20.502 99.8428 20.4623 100.171 20.3831C100.5 20.3037 100.801 20.1847 101.073 20.026L101.787 24.106C101.106 24.4233 100.325 24.6726 99.4404 24.854C98.5566 25.0353 97.729 25.126 96.9585 25.126C95.3945 25.126 94.1934 24.718 93.3545 23.902C92.5161 23.0859 92.0967 21.9073 92.0967 20.366L92.0967 0ZM103.553 27.506C104.006 27.6647 104.431 27.778 104.828 27.8459C105.224 27.9139 105.582 27.948 105.898 27.948C106.556 27.948 107.066 27.7213 107.429 27.2679C107.792 26.8147 108.12 25.9987 108.415 24.8199L101.615 6.96997L107.225 6.96997L111.373 20.162L114.943 6.96997L120.042 6.96997L113.243 27.71C112.767 29.1833 111.917 30.379 110.693 31.297C109.469 32.215 108.018 32.674 106.341 32.674C105.887 32.674 105.428 32.6343 104.964 32.5551C104.499 32.4757 104.029 32.3453 103.553 32.1641L103.553 27.506Z" clip-rule="evenodd" fill="#34313D" fill-opacity="1.000000" fill-rule="evenodd"/>
</svg>
