<svg width="24.000000" height="19.503906" viewBox="0 0 24 19.5039" fill="none" xmlns="http://www.w3.org/2000/svg" xmlns:xlink="http://www.w3.org/1999/xlink">
	<desc>
			Created with Pixso.
	</desc>
	<defs/>
	<path id="Path" d="M24 2.30908C23.1172 2.70093 22.168 2.96509 21.1719 3.08398C22.189 2.4751 22.9702 1.51001 23.3369 0.360107C22.3862 0.924072 21.332 1.33398 20.21 1.55493C19.313 0.5979 18.0322 0 16.6162 0C13.437 0 11.1011 2.96606 11.8188 6.04492C7.72803 5.84009 4.1001 3.87988 1.6709 0.900879C0.380859 3.11401 1.00195 6.00903 3.19385 7.4751C2.38818 7.44897 1.62793 7.22803 0.964844 6.85889C0.911133 9.13989 2.5459 11.2739 4.91406 11.749C4.22119 11.937 3.46191 11.981 2.68994 11.833C3.31592 13.7891 5.13379 15.2119 7.29004 15.252C5.22021 16.875 2.61182 17.6001 0 17.292C2.1792 18.689 4.76807 19.5039 7.54785 19.5039C16.6899 19.5039 21.855 11.783 21.543 4.85791C22.5049 4.16309 23.3398 3.2959 24 2.30908Z" fill="#FFFFFF" fill-opacity="1.000000" fill-rule="nonzero"/>
</svg>
